<?xml version="1.0" encoding="UTF-8"?>
<svg version="1.1" viewBox="0 0 1000 1000" xmlns="http://www.w3.org/2000/svg">
 <g transform="translate(0 -52.362)">
  <circle cx="500" cy="552.36" r="443.92" fill="#409fe2"/>
  <g transform="translate(4.9642 4.9633)" shape-rendering="auto">
   <path d="m448.24 305.26c-107.41 1e-5 -195.34 87.931-195.34 195.34 0 107.41 87.931 195.34 195.34 195.34 39.322 0 76.025-11.797 106.77-32.008l135.47 135.47a40.004 40.004 0 1 0 56.568 -56.568l-135.47-135.47c20.211-30.742 32.006-67.444 32.006-106.77 0-107.41-87.931-195.34-195.34-195.34zm0 80c64.175 0 115.34 51.166 115.34 115.34 0 29.612-10.9 56.448-28.939 76.771a40.004 40.004 0 0 0 -9.543 9.5547c-20.334 18.085-47.206 29.016-76.859 29.016-64.175 0-115.34-51.166-115.34-115.34 0-64.175 51.166-115.34 115.34-115.34z" color="#000000" color-rendering="auto" fill-opacity=".13333" image-rendering="auto" solid-color="#000000" style="block-progression:tb;isolation:auto;mix-blend-mode:normal;text-decoration-color:#000000;text-decoration-line:none;text-decoration-style:solid;text-indent:0;text-transform:none;white-space:normal"/>
   <path transform="translate(0 52.362)" d="m442.24 246.9c-107.41 1e-5 -195.34 87.931-195.34 195.34 0 107.41 87.931 195.34 195.34 195.34 39.322 0 76.025-11.797 106.77-32.008l135.47 135.47a40.004 40.004 0 1 0 56.568 -56.568l-135.47-135.47c20.211-30.742 32.006-67.444 32.006-106.77 0-107.41-87.931-195.34-195.34-195.34zm0 80c64.175 0 115.34 51.166 115.34 115.34 0 29.612-10.9 56.448-28.939 76.771a40.004 40.004 0 0 0 -9.543 9.5547c-20.334 18.085-47.206 29.016-76.859 29.016-64.175 0-115.34-51.166-115.34-115.34 0-64.175 51.166-115.34 115.34-115.34z" color="#000000" color-rendering="auto" fill="#e4ff1e" image-rendering="auto" solid-color="#000000" style="block-progression:tb;isolation:auto;mix-blend-mode:normal;text-decoration-color:#000000;text-decoration-line:none;text-decoration-style:solid;text-indent:0;text-transform:none;white-space:normal"/>
  </g>
 </g>
</svg>
